<svg xmlns="http://www.w3.org/2000/svg" width="1024" height="1024" viewBox="0 0 1024 1024">
<defs>
  <radialGradient id="bg" cx="50%" cy="38%" r="80%">
    <stop offset="0%" stop-color="#122c49"/><stop offset="100%" stop-color="#081426"/>
  </radialGradient>
  <linearGradient id="cur" x1="0" y1="0" x2="1" y2="0">
    <stop offset="0%" stop-color="#4fd8ff"/><stop offset="100%" stop-color="#2fd1b0"/>
  </linearGradient>
</defs>

<rect width="1024" height="1024" fill="url(#bg)"/>
<circle cx="512" cy="450" r="378" fill="#0d2036" opacity="0.6"/>

<!-- forecast grid: time columns (lead time →) + level lines (trimmed to disc by the cover ring below) -->
<g stroke="#1f4468" stroke-width="2.5" fill="none" opacity="0.9">
  <line x1="180" y1="72" x2="180" y2="828"/>
  <line x1="255" y1="72" x2="255" y2="828"/>
  <line x1="330" y1="72" x2="330" y2="828"/>
  <line x1="405" y1="72" x2="405" y2="828"/>
  <line x1="480" y1="72" x2="480" y2="828"/>
  <line x1="555" y1="72" x2="555" y2="828"/>
  <line x1="630" y1="72" x2="630" y2="828"/>
  <line x1="705" y1="72" x2="705" y2="828"/>
  <line x1="780" y1="72" x2="780" y2="828"/>
  <line x1="134" y1="330" x2="890" y2="330"/>
  <line x1="134" y1="450" x2="890" y2="450"/>
  <line x1="134" y1="570" x2="890" y2="570"/>
</g>

<!-- model forecast spaghetti: thin, diverging more with lead time -->
<path d="M 180.0,478.6 C 192.5,469.9 230.0,447.3 255.0,426.0 C 280.0,404.6 305.0,356.4 330.0,350.4 C 355.0,344.5 380.0,365.7 405.0,390.4 C 430.0,415.0 455.0,474.3 480.0,498.2 C 505.0,522.0 530.0,544.7 555.0,533.6 C 580.0,522.5 605.0,462.1 630.0,431.6 C 655.0,401.1 680.0,351.2 705.0,350.6 C 730.0,350.1 756.8,401.6 780.0,428.3 C 803.2,454.9 833.3,496.8 844.0,510.5"
      fill="none" stroke="#ff9f43" stroke-width="7" stroke-linecap="round" stroke-linejoin="round" opacity="0.85"/>
<path d="M 180.0,464.2 C 192.5,455.2 230.0,425.6 255.0,409.8 C 280.0,394.1 305.0,366.1 330.0,369.7 C 355.0,373.3 380.0,410.4 405.0,431.3 C 430.0,452.2 455.0,488.2 480.0,495.2 C 505.0,502.2 530.0,489.5 555.0,473.4 C 580.0,457.3 605.0,409.4 630.0,398.6 C 655.0,387.8 680.0,391.1 705.0,408.7 C 730.0,426.4 756.8,491.9 780.0,504.4 C 803.2,516.9 833.3,487.4 844.0,484.0"
      fill="none" stroke="#7f9bb5" stroke-width="7" stroke-linecap="round" stroke-linejoin="round" opacity="0.8"/>
<path d="M 180.0,472.5 C 192.5,467.1 230.0,456.6 255.0,440.2 C 280.0,423.7 305.0,383.7 330.0,374.0 C 355.0,364.2 380.0,368.0 405.0,381.7 C 430.0,395.5 455.0,433.4 480.0,456.4 C 505.0,479.4 530.0,515.8 555.0,519.6 C 580.0,523.4 605.0,499.7 630.0,479.3 C 655.0,459.0 680.0,411.4 705.0,397.5 C 730.0,383.7 756.8,390.1 780.0,396.2 C 803.2,402.2 833.3,427.6 844.0,433.9"
      fill="none" stroke="#8fdff0" stroke-width="7" stroke-linecap="round" stroke-linejoin="round" opacity="0.9"/>

<!-- observed truth: soft underlay (glow substitute) + bold hero curve -->
<path d="M 180.0,470.0 C 192.5,463.3 230.0,446.3 255.0,430.0 C 280.0,413.7 305.0,377.3 330.0,372.0 C 355.0,366.7 380.0,381.7 405.0,398.0 C 430.0,414.3 455.0,452.2 480.0,470.0 C 505.0,487.8 530.0,508.0 555.0,505.0 C 580.0,502.0 605.0,469.5 630.0,452.0 C 655.0,434.5 680.0,403.3 705.0,400.0 C 730.0,396.7 756.8,423.3 780.0,432.0 C 803.2,440.7 833.3,448.7 844.0,452.0"
      fill="none" stroke="url(#cur)" stroke-width="30" stroke-linecap="round" stroke-linejoin="round" opacity="0.22"/>
<path d="M 180.0,470.0 C 192.5,463.3 230.0,446.3 255.0,430.0 C 280.0,413.7 305.0,377.3 330.0,372.0 C 355.0,366.7 380.0,381.7 405.0,398.0 C 430.0,414.3 455.0,452.2 480.0,470.0 C 505.0,487.8 530.0,508.0 555.0,505.0 C 580.0,502.0 605.0,469.5 630.0,452.0 C 655.0,434.5 680.0,403.3 705.0,400.0 C 730.0,396.7 756.8,423.3 780.0,432.0 C 803.2,440.7 833.3,448.7 844.0,452.0"
      fill="none" stroke="url(#cur)" stroke-width="16" stroke-linecap="round" stroke-linejoin="round"/>

<!-- data points on the truth line -->
<g fill="#eafaff">
  <circle cx="180" cy="470" r="9"/><circle cx="330" cy="372" r="9"/>
  <circle cx="480" cy="470" r="9"/><circle cx="630" cy="452" r="9"/>
</g>

<!-- ranked end markers: how close each model finished to reality -->
<circle cx="844" cy="452" r="15" fill="#2fd1b0" stroke="#081426" stroke-width="4"/>
<circle cx="844" cy="433.9" r="10" fill="#8fdff0" stroke="#081426" stroke-width="3"/>
<circle cx="844" cy="484.0" r="10" fill="#7f9bb5" stroke="#081426" stroke-width="3"/>
<circle cx="844" cy="510.5" r="10" fill="#ff9f43" stroke="#081426" stroke-width="3"/>

<!-- cover ring: repaint the background outside the disc (trims grid+curves cleanly, no clipPath needed) -->
<path fill="url(#bg)" fill-rule="evenodd"
      d="M0,0 H1024 V1024 H0 Z M512,72 a378,378 0 1 0 0,756 a378,378 0 1 0 0,-756 Z"/>
<circle cx="512" cy="450" r="392" fill="none" stroke="#2f7fb8" stroke-width="7" opacity="0.9"/>
<circle cx="512" cy="450" r="378" fill="none" stroke="#2f7fb8" stroke-width="2.5" opacity="0.5"/>

<!-- SK badge -->
<rect x="700" y="120" width="150" height="96" rx="22" fill="#0d2036" stroke="#2f7fb8" stroke-width="5"/>
<text x="775" y="190" font-family="DejaVu Sans" font-weight="bold" font-size="62" fill="#4fd8ff" text-anchor="middle">SK</text>

<text x="512" y="918" font-family="DejaVu Sans" font-weight="bold" font-size="150" fill="#ffffff" text-anchor="middle">FORECAST</text>
<text x="512" y="980" font-family="DejaVu Sans" font-weight="bold" font-size="50" fill="#2fd1b0" text-anchor="middle">S K I L L</text>
</svg>
